<mxfile host="app.diagrams.net" modified="2023-05-26T05:41:23.640Z" agent="Mozilla/5.0 (Windows NT 10.0; Win64; x64) AppleWebKit/537.36 (KHTML, like Gecko) Chrome/113.0.0.0 Safari/537.36" version="21.3.2" etag="4UNZhV-ENR6oNC_3gNV5" type="github">
  <diagram name="페이지-1" id="xj-bcnjn9w_ahCSJo4fs">
    <mxGraphModel>
      <root>
        <mxCell id="0" />
        <mxCell id="1" parent="0" />
      </root>
    </mxGraphModel>
  </diagram>
</mxfile>
